<svg width="24" height="24" viewBox="0 0 24 24" fill="none" xmlns="http://www.w3.org/2000/svg">
<path d="M9.30001 6.30001C9.30001 4.80884 10.5088 3.60001 12 3.60001C13.4912 3.60001 14.7 4.80884 14.7 6.30001V11.7C14.7 13.1912 13.4912 14.4 12 14.4C10.5088 14.4 9.30001 13.1912 9.30001 11.7V6.30001Z" fill="#C2CCDE" fill-opacity="0.25"/>
<path d="M15 20.4H9.00001M12 16.5V20.4M12 16.5C9.34905 16.5 7.20001 14.351 7.20001 11.7V9.30001M12 16.5C14.651 16.5 16.8 14.351 16.8 11.7V9.30001M12 14.4C10.5088 14.4 9.30001 13.1912 9.30001 11.7V6.30001C9.30001 4.80884 10.5088 3.60001 12 3.60001C13.4912 3.60001 14.7 4.80884 14.7 6.30001V11.7C14.7 13.1912 13.4912 14.4 12 14.4Z" stroke="#C2CCDE" stroke-linecap="round" stroke-linejoin="round"/>
</svg>
