<svg width="24" height="24" viewBox="0 0 24 24" fill="none" xmlns="http://www.w3.org/2000/svg">
<path d="M16.2426 14.7441C16.1035 14.6935 15.9638 14.6454 15.8234 14.5999C15.2443 14.4123 14.9034 13.7877 15.1171 13.2177C15.4113 12.4332 14.8314 11.5964 13.9935 11.5964H10.2567C9.4189 11.5964 8.83896 12.4332 9.13315 13.2177C9.33571 13.7579 9.0062 14.349 8.4534 14.514C8.2199 14.5836 7.98794 14.6604 7.75785 14.7441C7.29867 14.9112 6.85182 15.1046 6.4192 15.3225C5.7059 15.6819 4.79793 15.3721 4.55111 14.6125L3.90067 12.6106C3.79359 12.2811 3.8866 11.9171 4.15205 11.6944C6.38599 9.81989 9.20895 8.79242 12.1251 8.79242C15.0413 8.79242 17.8643 9.81989 20.0982 11.6944C20.3639 11.9173 20.4569 12.2815 20.3498 12.6113L19.664 14.7218C19.4141 15.4909 18.488 15.7971 17.7722 15.4208C17.2805 15.1623 16.7697 14.9359 16.2426 14.7441Z" fill="#C2CCDE" fill-opacity="0.25" stroke="#C2CCDE" stroke-linecap="round" stroke-linejoin="round"/>
</svg>
