<svg width="24" height="24" viewBox="0 0 24 24" fill="none" xmlns="http://www.w3.org/2000/svg">
<path d="M4.80001 4.87677C4.13727 4.87677 3.60001 5.41403 3.60001 6.07677V16.8768H9.63782C9.77103 17.3943 10.2409 17.7768 10.8 17.7768H13.2C13.7592 17.7768 14.229 17.3943 14.3622 16.8768H20.4V6.07677C20.4 5.41403 19.8628 4.87677 19.2 4.87677H4.80001Z" fill="#C2CCDE" fill-opacity="0.25"/>
<path d="M9.63782 16.8768H1.24566C1.22045 16.8768 1.20001 16.8972 1.20001 16.9224C1.20001 18.2227 2.25409 19.2768 3.55437 19.2768H20.4457C21.7459 19.2768 22.8 18.2227 22.8 16.9224C22.8 16.8972 22.7796 16.8768 22.7544 16.8768H14.3622C14.229 17.3943 13.7592 17.7768 13.2 17.7768H10.8C10.2409 17.7768 9.77103 17.3943 9.63782 16.8768Z" fill="#C2CCDE" fill-opacity="0.25"/>
<path d="M14.3622 16.8768H22.7544C22.7796 16.8768 22.8 16.8972 22.8 16.9224C22.8 18.2227 21.7459 19.2768 20.4457 19.2768H3.55437C2.25409 19.2768 1.20001 18.2227 1.20001 16.9224C1.20001 16.8972 1.22045 16.8768 1.24566 16.8768H9.63782C9.77103 17.3943 10.2409 17.7768 10.8 17.7768H13.2C13.7592 17.7768 14.229 17.3943 14.3622 16.8768H20.4V6.07677C20.4 5.41403 19.8628 4.87677 19.2 4.87677H4.80001C4.13727 4.87677 3.60001 5.41403 3.60001 6.07677V16.8768H9.63782" stroke="#C2CCDE" stroke-linecap="round" stroke-linejoin="round"/>
<path d="M12 7.38614V9.5968M12 9.6V13.05M9.60001 9.6L11.6818 7.5182C11.8575 7.34247 12.1425 7.34247 12.3182 7.5182L14.4 9.6M9.60001 14.25H14.4" stroke="#C2CCDE" stroke-linecap="round" stroke-linejoin="round"/>
</svg>
