<svg width="24" height="24" viewBox="0 0 24 24" fill="none" xmlns="http://www.w3.org/2000/svg">
<path d="M7.49006 11.7919C7.37766 12.3267 7.03202 12.7833 6.54775 13.0366C6.01672 13.3143 5.38333 13.3143 4.8523 13.0366C4.36803 12.7833 4.02239 12.3267 3.90999 11.7919L3.87102 11.6065C3.75534 11.0561 3.87948 10.4824 4.21238 10.029L4.27549 9.94309C4.60846 9.48962 5.13744 9.22178 5.70002 9.22178C6.26261 9.22178 6.79158 9.48962 7.12456 9.94309L7.18767 10.029C7.52057 10.4824 7.64471 11.0561 7.52903 11.6065L7.49006 11.7919Z" fill="#C2CCDE" fill-opacity="0.25"/>
<path d="M2.40002 16.8399C2.40002 17.1492 2.65075 17.3999 2.96003 17.3999H6.39322C6.61397 16.4192 7.21453 15.5619 8.06255 15.0195C7.90992 14.9106 7.74197 14.8199 7.56123 14.7509L7.43468 14.7026C6.31753 14.2763 5.08252 14.2763 3.96537 14.7026L3.83882 14.7509C2.97243 15.0815 2.40002 15.9126 2.40002 16.8399Z" fill="#C2CCDE" fill-opacity="0.25"/>
<path d="M21.04 17.4H17.6068C17.3861 16.4193 16.7856 15.5619 15.9375 15.0195C16.0902 14.9107 16.2581 14.8199 16.4388 14.7509L16.5654 14.7027C17.6825 14.2763 18.9175 14.2763 20.0347 14.7027L20.1612 14.7509C21.0276 15.0816 21.6 15.9127 21.6 16.84C21.6 17.1493 21.3493 17.4 21.04 17.4Z" fill="#C2CCDE" fill-opacity="0.25"/>
<path d="M16.51 11.792C16.6224 12.3268 16.968 12.7834 17.4523 13.0366C17.9833 13.3144 18.6167 13.3144 19.1478 13.0366C19.632 12.7834 19.9777 12.3268 20.0901 11.792L20.129 11.6066C20.2447 11.0561 20.1206 10.4825 19.7877 10.0291L19.7246 9.94316C19.3916 9.48969 18.8626 9.22184 18.3 9.22184C17.7374 9.22184 17.2085 9.48969 16.8755 9.94316L16.8124 10.0291C16.4795 10.4825 16.3553 11.0561 16.471 11.6066L16.51 11.792Z" fill="#C2CCDE" fill-opacity="0.25"/>
<path d="M16.74 19.2H7.26003C6.72983 19.2 6.30002 18.7702 6.30002 18.24C6.30002 16.651 7.28292 15.2277 8.76888 14.6649L9.01835 14.5705C10.9395 13.8428 13.0605 13.8428 14.9817 14.5705L15.2312 14.6649C16.7171 15.2277 17.7 16.651 17.7 18.24C17.7 18.7702 17.2702 19.2 16.74 19.2Z" fill="#C2CCDE" fill-opacity="0.25"/>
<path d="M10.5424 11.7234C11.4563 12.1977 12.5438 12.1977 13.4576 11.7234C14.2981 11.2871 14.899 10.4972 15.0952 9.57076L15.1566 9.2808C15.3579 8.32986 15.1423 7.33822 14.5642 6.55681L14.4651 6.42288C13.8868 5.64132 12.9722 5.18028 12 5.18028C11.0278 5.18028 10.1132 5.64132 9.53498 6.42288L9.4359 6.55681C8.85778 7.33822 8.64211 8.32986 8.84347 9.2808L8.90487 9.57076C9.10104 10.4972 9.70191 11.2871 10.5424 11.7234Z" fill="#C2CCDE" fill-opacity="0.25"/>
<path d="M7.49006 11.7919C7.37766 12.3267 7.03202 12.7833 6.54775 13.0366C6.01672 13.3143 5.38333 13.3143 4.8523 13.0366C4.36803 12.7833 4.02239 12.3267 3.90999 11.7919L3.87102 11.6065C3.75534 11.0561 3.87948 10.4824 4.21238 10.029L4.27549 9.94309C4.60846 9.48962 5.13744 9.22178 5.70002 9.22178C6.26261 9.22178 6.79158 9.48962 7.12456 9.94309L7.18767 10.029C7.52057 10.4824 7.64471 11.0561 7.52903 11.6065L7.49006 11.7919Z" stroke="#C2CCDE" stroke-linecap="round" stroke-linejoin="round"/>
<path d="M2.40002 16.8399C2.40002 17.1492 2.65075 17.3999 2.96003 17.3999H6.39322C6.61397 16.4192 7.21453 15.5619 8.06255 15.0195C7.90992 14.9106 7.74197 14.8199 7.56123 14.7509L7.43468 14.7026C6.31753 14.2763 5.08252 14.2763 3.96537 14.7026L3.83882 14.7509C2.97243 15.0815 2.40002 15.9126 2.40002 16.8399Z" stroke="#C2CCDE" stroke-linecap="round" stroke-linejoin="round"/>
<path d="M21.04 17.4H17.6068C17.3861 16.4193 16.7856 15.5619 15.9375 15.0195C16.0902 14.9107 16.2581 14.8199 16.4388 14.7509L16.5654 14.7027C17.6825 14.2763 18.9175 14.2763 20.0347 14.7027L20.1612 14.7509C21.0276 15.0816 21.6 15.9127 21.6 16.84C21.6 17.1493 21.3493 17.4 21.04 17.4Z" stroke="#C2CCDE" stroke-linecap="round" stroke-linejoin="round"/>
<path d="M16.51 11.792C16.6224 12.3268 16.968 12.7834 17.4523 13.0366C17.9833 13.3144 18.6167 13.3144 19.1478 13.0366C19.632 12.7834 19.9777 12.3268 20.0901 11.792L20.129 11.6066C20.2447 11.0561 20.1206 10.4825 19.7877 10.0291L19.7246 9.94316C19.3916 9.48969 18.8626 9.22184 18.3 9.22184C17.7374 9.22184 17.2085 9.48969 16.8755 9.94316L16.8124 10.0291C16.4795 10.4825 16.3553 11.0561 16.471 11.6066L16.51 11.792Z" stroke="#C2CCDE" stroke-linecap="round" stroke-linejoin="round"/>
<path d="M16.74 19.2H7.26003C6.72983 19.2 6.30002 18.7702 6.30002 18.24C6.30002 16.651 7.28292 15.2277 8.76888 14.6649L9.01835 14.5705C10.9395 13.8428 13.0605 13.8428 14.9817 14.5705L15.2312 14.6649C16.7171 15.2277 17.7 16.651 17.7 18.24C17.7 18.7702 17.2702 19.2 16.74 19.2Z" stroke="#C2CCDE" stroke-linecap="round" stroke-linejoin="round"/>
<path d="M10.5424 11.7234C11.4563 12.1977 12.5438 12.1977 13.4576 11.7234C14.2981 11.2871 14.899 10.4972 15.0952 9.57076L15.1566 9.2808C15.3579 8.32986 15.1423 7.33822 14.5642 6.55681L14.4651 6.42288C13.8868 5.64132 12.9722 5.18028 12 5.18028C11.0278 5.18028 10.1132 5.64132 9.53498 6.42288L9.4359 6.55681C8.85778 7.33822 8.64211 8.32986 8.84347 9.2808L8.90487 9.57076C9.10104 10.4972 9.70191 11.2871 10.5424 11.7234Z" stroke="#C2CCDE" stroke-linecap="round" stroke-linejoin="round"/>
</svg>
