<svg width="24" height="24" viewBox="0 0 24 24" fill="none" xmlns="http://www.w3.org/2000/svg">
<path d="M2.39999 7.2C2.39999 6.53726 2.93725 6 3.59999 6H15C15.6627 6 16.2 6.53726 16.2 7.2V16.8C16.2 17.4627 15.6627 18 15 18H3.59999C2.93725 18 2.39999 17.4627 2.39999 16.8V7.2Z" fill="#C2CCDE" fill-opacity="0.25"/>
<path d="M16.2 14.5737L20.762 16.5446C21.1581 16.7157 21.6 16.4253 21.6 15.9938V8.21945C21.6 7.78795 21.1581 7.49752 20.762 7.66866L16.2 9.6396V14.5737Z" fill="#C2CCDE" fill-opacity="0.25"/>
<path d="M2.39999 7.2C2.39999 6.53726 2.93725 6 3.59999 6H15C15.6627 6 16.2 6.53726 16.2 7.2V16.8C16.2 17.4627 15.6627 18 15 18H3.59999C2.93725 18 2.39999 17.4627 2.39999 16.8V7.2Z" stroke="#C2CCDE" stroke-linecap="round" stroke-linejoin="round"/>
<path d="M16.2 14.5737L20.762 16.5446C21.1581 16.7157 21.6 16.4253 21.6 15.9938V8.21945C21.6 7.78795 21.1581 7.49752 20.762 7.66866L16.2 9.6396V14.5737Z" stroke="#C2CCDE" stroke-linecap="round" stroke-linejoin="round"/>
</svg>
