<svg width="24" height="25" viewBox="0 0 24 25" fill="none" xmlns="http://www.w3.org/2000/svg">
<path d="M1.5 5.4001C1.5 4.73732 2.03733 4.20004 2.70011 4.2001L21.3001 4.20185C21.9628 4.20191 22.5 4.73915 22.5 5.40185V16.2C22.5 16.8627 21.9627 17.4 21.3 17.4H2.7C2.03726 17.4 1.5 16.8627 1.5 16.2L1.5 5.4001Z" fill="#C2CCDE" fill-opacity="0.25"/>
<path d="M12 19.8H18.3M12 19.8H5.7M12 19.8V17.4M1.5 16.2L1.5 5.4001C1.5 4.73732 2.03733 4.20004 2.70011 4.2001L21.3001 4.20185C21.9628 4.20191 22.5 4.73915 22.5 5.40185V16.2C22.5 16.8627 21.9627 17.4 21.3 17.4H2.7C2.03726 17.4 1.5 16.8627 1.5 16.2Z" stroke="#C2CCDE" stroke-linecap="round" stroke-linejoin="round"/>
<g filter="url(#filter0_d_5_489)">
<path d="M12.8077 6.46792C13.4209 5.67466 14.5913 5.60007 15.3003 6.30905C16.0092 7.01795 15.9347 8.18816 15.1416 8.80146L11.3602 11.7258C11.2889 11.7809 11.1879 11.7744 11.1242 11.7108L9.89915 10.4857C9.83548 10.422 9.82904 10.321 9.88411 10.2497L12.8077 6.46792Z" stroke="#C2CCDE" stroke-linecap="round" stroke-linejoin="round"/>
<path d="M11.8477 11.0978L10.5112 9.76138" stroke="#C2CCDE" stroke-linecap="round" stroke-linejoin="round"/>
<path d="M9.90984 10.4964L11.1126 11.6992C11.1544 11.741 11.1725 11.8008 11.1609 11.8587L11.0203 12.5617C10.9123 13.1017 10.5201 13.5407 9.99563 13.7085L7.77427 14.4193C7.60846 14.4724 7.4269 14.4284 7.3038 14.3053C7.18069 14.1821 7.13668 14.0006 7.18974 13.8348L7.90057 11.6134C8.06839 11.089 8.50736 10.6967 9.04731 10.5887L9.75035 10.4481C9.80824 10.4366 9.86809 10.4547 9.90984 10.4964Z" stroke="#C2CCDE" stroke-linecap="round" stroke-linejoin="round"/>
<path d="M7.3038 14.3052L9.04117 12.5679" stroke="#F2F2F7" stroke-linecap="round" stroke-linejoin="round"/>
<path d="M8.94331 12.2028C8.868 12.4838 9.1252 12.741 9.40627 12.6657V12.6657C9.68734 12.5904 9.78148 12.2391 9.57572 12.0333V12.0333C9.36996 11.8276 9.01863 11.9217 8.94331 12.2028V12.2028Z" stroke="#C2CCDE" stroke-linecap="round" stroke-linejoin="round"/>
<path d="M7.04752 15.84H9.09634C9.38875 15.84 9.67211 15.7386 9.89813 15.5531L10.4936 15.0644C10.6135 14.9659 10.7863 14.9659 10.9063 15.0644L11.5024 15.5537C11.728 15.7388 12.0108 15.84 12.3026 15.84H12.4144C12.8797 15.84 13.2948 15.5478 13.4519 15.1099L14.4046 12.4537C14.4332 12.3742 14.5456 12.3742 14.5741 12.4537L15.3899 14.7281C15.6292 15.3951 16.2614 15.84 16.97 15.84H17.1275" stroke="#C2CCDE" stroke-linecap="round" stroke-linejoin="round"/>
</g>
<defs>
<filter id="filter0_d_5_489" x="1.70001" y="4.5" width="20.6" height="20.6" filterUnits="userSpaceOnUse" color-interpolation-filters="sRGB">
<feFlood flood-opacity="0" result="BackgroundImageFix"/>
<feColorMatrix in="SourceAlpha" type="matrix" values="0 0 0 0 0 0 0 0 0 0 0 0 0 0 0 0 0 0 127 0" result="hardAlpha"/>
<feOffset dy="4"/>
<feGaussianBlur stdDeviation="2"/>
<feComposite in2="hardAlpha" operator="out"/>
<feColorMatrix type="matrix" values="0 0 0 0 0 0 0 0 0 0 0 0 0 0 0 0 0 0 0.25 0"/>
<feBlend mode="normal" in2="BackgroundImageFix" result="effect1_dropShadow_5_489"/>
<feBlend mode="normal" in="SourceGraphic" in2="effect1_dropShadow_5_489" result="shape"/>
</filter>
</defs>
</svg>
